Coordinates
version=1
nRows=8
nColumns=33
inDegrees=yes

Units are S.I. units (second, meters, Newtons, ...)
Angles are in degrees.

endheader
time	ground_thorax_rot_x	ground_thorax_rot_y	ground_thorax_rot_z	ground_thorax_tx	ground_thorax_ty	ground_thorax_tz	clav_prot_r	clav_elev_r	scapula_abduction_r	scapula_elevation_r	scapula_upward_rot_r	scapula_winging_r	shoulder_elv_r	plane_of_elev_r	axial_rot_r	elbow_flexion_r	pro_sup_r	wrist_flex_r	wrist_dev_r	clav_prot_l	clav_elev_l	scapula_abduction_l	scapula_elevation_l	scapula_upward_rot_l	scapula_winging_l	shoulder_elv_l	plane_of_elev_l	axial_rot_l	elbow_flexion_l	pro_sup_l	wrist_flex_l	wrist_dev_l
      1.80000000	     39.94177308	     10.17418368	      9.72034096	    -79.52301029	    779.88713326	     19.65388498	     10.79302963	     39.00862736	     45.00000000	     36.16449108	     -4.03527490	  -5492.95471549	  -2102.83980882	     27.80342620	     62.43192276	   2888.05984239	     24.02895183	     16.91925302	     11.51975942	      6.52823464	    -45.00000000	    -45.00000000	     45.00000000	    -31.20239795	    801.64744867	  -2258.76729041	    134.78484335	   -179.99999979	   -352.73458607	     40.74489529	      9.47858013	    -19.38812110
      1.81000000	     39.96609771	     10.13531651	      9.75185062	    -79.52301851	    779.88636503	     19.65378318	     10.79365794	     39.01063655	     45.00000000	     36.12872447	     -4.03969272	  -5492.95296236	  -2102.86789102	     27.79265672	     62.43306163	   2888.07399999	     24.02955509	     16.92050586	     11.51870611	      6.52130650	    -45.00000000	    -45.00000000	     45.00000000	    -31.19479635	    801.61398350	  -2258.77897731	    134.75383376	   -179.99999979	   -352.72279777	     40.74215828	      9.47304425	    -19.38899774
      1.82000000	     39.98519763	      9.85905594	      9.52803579	    -79.61063395	    779.75668353	     19.63206340	     10.81712196	     39.00055423	     45.00000000	     36.06641674	     -3.81734234	  -5492.93146762	  -2102.94944430	     27.90065587	     62.68229057	   2888.16787206	     24.18418286	     16.86036054	     11.37294465	      5.99036642	    -45.00000000	    -45.00000000	     45.00000000	    -30.95470268	    801.63758523	  -2258.74661943	    134.62597405	   -179.99999979	   -352.65664229	     40.58381402	      9.17164284	    -19.30934157
      1.83000000	     39.98340877	     10.02560003	      9.77947162	    -79.77962948	    779.66881014	     19.61509312	     10.67782901	     38.98939683	     45.00000000	     36.06981302	     -3.58027756	  -5493.06879305	  -2102.94522811	     27.56425450	     62.66921908	   2888.22220316	     24.31875150	     17.05664819	     11.48074962	      6.17268155	    -45.00000000	    -45.00000000	     45.00000000	    -30.87898366	    801.57042152	  -2258.94989346	    134.83119076	   -179.99999979	   -352.75612415	     40.55027933	      9.59401999	    -19.43716954
      1.84000000	     40.02327865	      9.77200529	      9.61704479	    -80.03184547	    779.56241139	     19.58975396	     10.70750635	     38.91042614	     45.00000000	     36.01714329	     -3.68262052	  -5493.05106248	  -2103.01670144	     27.83579980	     62.85014688	   2888.27184737	     24.50384259	     16.91428422	     11.29810879	      6.08216852	    -45.00000000	    -45.00000000	     45.00000000	    -30.91428344	    801.58636805	  -2258.79826953	    134.64131523	   -179.99999979	   -352.77438057	     40.42652075	      9.23843853	    -19.27521720
      1.85000000	     39.98666100	      9.80042236	      9.75310553	    -80.36169448	    779.43670669	     19.56813777	     10.64319884	     38.93975972	     45.00000000	     35.92730928	     -3.65589713	  -5493.00774625	  -2102.94625447	     27.69251354	     62.89053263	   2888.25433088	     24.68135888	     17.10184507	     11.45066603	      6.11396909	    -45.00000000	    -45.00000000	     45.00000000	    -30.89520914	    801.62101892	  -2258.81578956	    134.74683023	   -179.99999979	   -352.67268444	     40.38217026	      9.51828056	    -19.42352463
      1.86000000	     40.03822549	      9.67736029	      9.70055778	    -80.75860983	    779.29892070	     19.53361194	     10.66837732	     38.85470098	     45.00000000	     35.93647078	     -3.71039457	  -5493.09775790	  -2103.05049841	     27.85751991	     62.88727079	   2888.28504378	     24.83680706	     16.94460602	     11.25749606	      6.11080716	    -45.00000000	    -45.00000000	     45.00000000	    -30.93296516	    801.67136731	  -2258.80677781	    134.65184830	   -179.99999979	   -352.71146365	     40.30437795	      9.25211509	    -19.28171205
      1.87000000	     40.03262676	      9.76983507	      9.86572776	    -81.21289865	    779.15488009	     19.48359955	     10.62958229	     38.89492655	     45.00000000	     35.87270266	     -3.69618423	  -5493.07585508	  -2102.90364560	     27.69717875	     62.84758823	   2888.32766289	     24.96803729	     17.16220051	     11.46127406	      6.10245999	    -45.00000000	    -45.00000000	     45.00000000	    -30.97318409	    801.70650107	  -2258.86893166	    134.75586256	   -179.99999979	   -352.63731587	     40.28090922	      9.52069410	    -19.43932500
